<?xml version="1.0" encoding="UTF-8"?>
<svg version="1.1" xmlns="http://www.w3.org/2000/svg" width="981" height="1461">
<path d="M0 0 C1.94992781 -0.06215884 3.89917908 -0.15117368 5.84667969 -0.26660156 C21.64305078 -1.18058373 21.64305078 -1.18058373 26.01608276 2.1612854 C28.89647644 5.41806688 30.68653169 9.05709845 32.40638733 13.01811218 C33.91441754 16.1246757 35.99008951 18.68334365 38.10546875 21.40698242 C38.56687256 22.00631592 39.02827637 22.60564941 39.50366211 23.22314453 C56.980296 44.87149817 77.7777353 61.73722074 102.29296875 74.84448242 C102.92493164 75.18318359 103.55689453 75.52188477 104.20800781 75.87084961 C147.79588982 98.75269442 200.81906209 101.7726246 247.52929688 87.72875977 C276.59098028 78.43004799 302.30165442 62.94565569 324.29296875 41.84448242 C324.83099121 41.33369141 325.36901367 40.82290039 325.92333984 40.29663086 C334.67870234 31.95010908 343.94046702 22.99398768 349.22973633 11.95581055 C354.25322695 2.01571535 354.25322695 2.01571535 359.39486694 0.03460693 C365.49317253 -1.1508824 371.63271097 -0.66802722 377.79296875 -0.28051758 C379.74086611 -0.21032712 381.6889608 -0.14542168 383.63720703 -0.08569336 C389.19814989 0.11250707 394.742471 0.456267 400.29296875 0.84448242 C401.3532428 0.91300415 401.3532428 0.91300415 402.43493652 0.98291016 C481.75085042 6.11620528 555.38773668 46.08113248 607.921875 104.78198242 C610.10979859 107.42521976 612.20850549 110.11892765 614.29296875 112.84448242 C615.29311439 114.10581693 616.29451487 115.36615702 617.296875 116.62573242 C667.31630841 180.04950629 681.91204121 253.51670907 681.68408203 332.50854492 C681.66677619 338.57290376 681.67700569 344.63687036 681.69479942 350.70121574 C681.70563186 355.41099014 681.70219706 360.12067097 681.69441605 364.83044815 C681.69242367 367.06869683 681.69483926 369.30695415 681.70185471 371.54519272 C681.70948392 374.65413908 681.69785369 377.76243965 681.68115234 380.87133789 C681.68722504 381.7824382 681.69329773 382.69353851 681.69955444 383.63224792 C681.6259095 391.0424632 679.95419664 396.81001446 674.84833527 402.50348663 C668.68566377 407.81677867 661.38665852 408.42821597 653.59179688 408.36206055 C652.04606239 408.37257446 652.04606239 408.37257446 650.46910095 408.38330078 C647.08719356 408.40080217 643.70613358 408.38928544 640.32421875 408.37573242 C637.95967449 408.37842958 635.5951313 408.38231386 633.23059082 408.3873291 C628.2846415 408.39321354 623.33898194 408.38469485 618.39306641 408.3659668 C612.06815779 408.34317837 605.74392823 408.35630704 599.41904449 408.38025665 C594.53927538 408.39474288 589.65966602 408.39009559 584.77989197 408.37974548 C582.44839903 408.37708603 580.11689138 408.38032031 577.78541565 408.3896637 C574.52126907 408.3998755 571.25820689 408.38426237 567.99414062 408.36206055 C567.04010849 408.37015747 566.08607635 408.37825439 565.10313416 408.38659668 C558.09020202 408.29867548 551.72658873 406.97715209 546.40703583 402.12384796 C540.62123662 395.95471292 539.99789382 389.54196406 540.02172852 381.40869141 C540.0138884 380.00957016 540.0138884 380.00957016 540.00588989 378.58218384 C539.99566998 376.56066501 539.989873 374.53912002 539.9880085 372.51757622 C539.984326 369.29773296 539.96754082 366.07819262 539.94725037 362.8584137 C539.89206659 353.70449526 539.86140883 344.55053021 539.83666992 335.39648438 C539.82060217 329.78731379 539.79017331 324.17835268 539.75190544 318.56929207 C539.74040675 316.45149053 539.73432644 314.33365116 539.73422432 312.21581841 C539.73307916 294.76501323 538.78462305 277.15244607 533.66796875 260.34448242 C533.41635986 259.49611816 533.16475098 258.64775391 532.90551758 257.77368164 C524.95560548 232.01284047 511.73789313 210.37054802 493.29296875 190.84448242 C492.25076172 189.72299805 492.25076172 189.72299805 491.1875 188.57885742 C465.64125271 161.96236662 425.82637827 143.76918667 388.83406949 142.74910116 C384.55614681 142.70961101 380.27918727 142.70136881 376.00112915 142.70404053 C374.34048277 142.70145384 372.67983701 142.69843983 371.0191921 142.69503713 C366.46996895 142.68699936 361.92076161 142.68517936 357.3715322 142.68443966 C352.45921137 142.68258344 347.54689864 142.67503319 342.63458252 142.66830444 C331.89864606 142.65474288 321.16271334 142.64869962 310.42676973 142.64429379 C303.7169706 142.64152732 297.00717289 142.6372892 290.29737473 142.63278961 C271.70259759 142.62059911 253.10782159 142.6102998 234.51304054 142.60691452 C233.32372137 142.60669495 232.13440219 142.60647539 230.90904304 142.60624917 C229.71695068 142.60603089 228.52485832 142.60581261 227.29664195 142.60558772 C224.88119229 142.60514426 222.46574263 142.6046977 220.05029297 142.60424805 C218.25309053 142.6039159 218.25309053 142.6039159 216.41958098 142.60357705 C197.02045909 142.59963193 177.62137483 142.58218564 158.22226746 142.55888852 C138.28282049 142.53513677 118.34339236 142.52271091 98.40393102 142.5215466 C87.21790159 142.52063192 76.03192118 142.51493193 64.8459053 142.49672699 C55.31767903 142.48127423 45.78951693 142.4762359 36.26128049 142.48446509 C31.40627692 142.48835351 26.55140237 142.48753116 21.69641495 142.47340775 C17.238653 142.46055937 12.78111557 142.46196087 8.32335345 142.47399846 C6.7236966 142.47593673 5.12402322 142.47296529 3.52438946 142.46415409 C-11.70103036 142.38570131 -26.77259286 144.2057866 -41.39453125 148.59448242 C-42.26480957 148.85052246 -43.13508789 149.1065625 -44.03173828 149.37036133 C-52.24472922 151.86813438 -60.01099322 155.05839933 -67.70703125 158.84448242 C-68.33802734 159.15111816 -68.96902344 159.45775391 -69.61914062 159.77368164 C-82.52548849 166.11831595 -94.0111214 174.00595787 -104.53515625 183.82495117 C-106.4390773 185.5953238 -108.38594276 187.2583401 -110.39453125 188.90698242 C-138.000349 212.60571228 -154.09264995 252.38773914 -157.70703125 287.84448242 C-158.1315126 294.65076183 -158.12803122 301.46585869 -158.11772156 308.28305435 C-158.11316111 311.56372017 -158.12746598 314.84386963 -158.14611816 318.1244812 C-158.18866465 326.25436939 -158.20016251 334.38424112 -158.21234131 342.51422119 C-158.22389654 349.42960784 -158.24749238 356.3447515 -158.28703308 363.26003647 C-158.30052153 366.47783634 -158.29645126 369.69529984 -158.29162598 372.91311646 C-158.30096823 374.89300967 -158.31113747 376.87289922 -158.32226562 378.8527832 C-158.31304329 380.17610909 -158.31304329 380.17610909 -158.30363464 381.52616882 C-158.3732007 388.60555059 -159.43417949 395.08020326 -164.01953125 400.65698242 C-169.16001179 404.84109449 -173.32345032 407.95903584 -180.07609558 407.98492432 C-180.96897278 407.99063446 -181.86184998 407.9963446 -182.78178406 408.00222778 C-184.24754631 408.00390457 -184.24754631 408.00390457 -185.74291992 408.00561523 C-187.2897496 408.01306259 -187.2897496 408.01306259 -188.86782837 408.0206604 C-192.28689233 408.03529098 -195.70590985 408.04208629 -199.125 408.04760742 C-201.50051373 408.05335907 -203.87602744 408.0591168 -206.25154114 408.06488037 C-211.23743913 408.07539355 -216.22332099 408.08123384 -221.20922852 408.0847168 C-227.59031731 408.09019569 -233.9711921 408.11420968 -240.35221386 408.14268875 C-245.26193356 408.16133811 -250.17160201 408.16652201 -255.08135414 408.16805267 C-257.43322225 408.1710756 -259.78508953 408.17909192 -262.13692284 408.19223785 C-265.43283589 408.20934249 -268.72823016 408.20740682 -272.02416992 408.20092773 C-272.9912236 408.21014252 -273.95827728 408.2193573 -274.95463562 408.22885132 C-281.8813518 408.18631885 -287.77216897 407.37976252 -293.203125 402.68823242 C-293.84378906 401.91479492 -294.48445313 401.14135742 -295.14453125 400.34448242 C-296.13259766 399.18432617 -296.13259766 399.18432617 -297.140625 398.00073242 C-299.48313221 394.77613397 -299.83319807 392.1887842 -299.84747314 388.31733704 C-299.85318329 387.38868332 -299.85889343 386.4600296 -299.86477661 385.50323486 C-299.86589447 384.48574158 -299.86701233 383.46824829 -299.86816406 382.41992188 C-299.87312897 381.34612778 -299.87809387 380.27233368 -299.88320923 379.16600037 C-299.89786288 375.59658164 -299.90464442 372.02720761 -299.91015625 368.45776367 C-299.91591282 365.9636383 -299.92167049 363.46951294 -299.9274292 360.97538757 C-299.93660753 356.39830862 -299.94289884 351.82124234 -299.94592595 347.24415523 C-299.95080315 339.91315753 -299.97372647 332.58240456 -300.00523758 325.25146198 C-300.02407148 320.08545897 -300.02908084 314.91950388 -300.0306015 309.75346947 C-300.03359101 307.30318261 -300.04149078 304.85289581 -300.05478668 302.4026432 C-300.16076258 281.33815977 -298.36021932 260.838403 -293.95703125 240.21948242 C-293.70099121 239.00711914 -293.44495117 237.79475586 -293.18115234 236.5456543 C-290.74316967 225.38295607 -287.53853219 214.60153304 -283.70703125 203.84448242 C-283.25505371 202.55501709 -283.25505371 202.55501709 -282.79394531 201.23950195 C-269.46467923 163.54377328 -248.85774529 129.52765905 -221.79296875 100.11791992 C-220.40134552 98.60120696 -219.03131015 97.06440286 -217.68359375 95.50854492 C-207.48010407 83.7878077 -195.86078387 73.49157016 -183.45751953 64.16235352 C-181.70764276 62.8449428 -179.97115931 61.5111158 -178.234375 60.17651367 C-135.10502012 27.4235672 -83.41141846 7.84686835 -29.70703125 1.84448242 C-28.95631348 1.7581958 -28.2055957 1.67190918 -27.43212891 1.58300781 C-18.31604857 0.64397757 -9.15822092 0.2309639 0 0 Z " fill="#006837" transform="translate(299.70703125,239.155517578125)"/>
<path d="M0 0 C1.55707924 -0.01248528 1.55707924 -0.01248528 3.14561462 -0.02522278 C6.5766882 -0.04931304 10.00757152 -0.05809471 13.4387207 -0.06469727 C15.8290055 -0.07366575 18.21928972 -0.08278764 20.60957336 -0.09205627 C25.62221642 -0.1085472 30.63479269 -0.11624634 35.64746094 -0.11914062 C42.0553757 -0.12451818 48.46265822 -0.16217289 54.87039471 -0.20788479 C59.80937461 -0.23770258 64.74820332 -0.24486526 69.6872654 -0.24586678 C72.04866233 -0.25006122 74.41006004 -0.26246411 76.77136803 -0.28338432 C80.0837211 -0.31038937 83.39462248 -0.3054446 86.70703125 -0.29296875 C87.67310303 -0.30780304 88.6391748 -0.32263733 89.63452148 -0.33792114 C96.55641203 -0.26408023 101.89694439 1.43721088 107.67700195 5.30639648 C114.29104742 12.07667649 114.97420926 20.0245162 114.94824219 29.07104492 C114.95346893 30.02665817 114.95869568 30.98227142 114.96408081 31.96684265 C114.97429002 34.03473019 114.98009582 36.10264321 114.9819622 38.17055511 C114.98564672 41.46133682 115.00243562 44.7518227 115.02272034 48.0425415 C115.07789703 57.39687544 115.10861583 66.75125415 115.13330078 76.10571289 C115.1493374 81.83921871 115.17973127 87.57251813 115.21806526 93.30591583 C115.22958564 95.47281929 115.23564446 97.63975995 115.23574638 99.80669403 C115.2368236 116.62927863 116.20459943 133.15891558 121.36450195 149.30639648 C121.61868896 150.12197021 121.87287598 150.93754395 122.13476562 151.77783203 C135.71085255 194.05834221 164.28089631 227.88864504 203.67700195 248.30639648 C204.58869141 248.78568604 204.58869141 248.78568604 205.51879883 249.2746582 C228.31855332 261.1139444 253.43009391 265.45818861 278.89723206 265.4535675 C280.55019035 265.45687099 282.20314784 265.46059758 283.85610431 265.46470898 C288.38427091 265.47468233 292.91242426 265.47843824 297.44060028 265.48109829 C302.33052304 265.48501537 307.22043545 265.4945928 312.11035156 265.50331116 C323.91401254 265.52303795 335.71767433 265.53313781 347.52134767 265.54203895 C353.0894728 265.5464288 358.65759698 265.55179386 364.22572136 265.55702782 C382.75271819 265.57403771 401.27971444 265.5885292 419.80671787 265.59577656 C424.61040307 265.59768624 429.41408826 265.5996066 434.21777344 265.6015625 C435.41160623 265.60204624 436.60543902 265.60252998 437.83544856 265.60302838 C457.1503734 265.61131869 476.46523611 265.63663979 495.78013385 265.66914318 C515.64163385 265.70229192 535.50310237 265.72023244 555.36463016 265.7234208 C566.50332967 265.72557887 577.64193862 265.73422384 588.78061104 265.75988197 C598.27210865 265.78169614 607.7634937 265.78958715 617.25501353 265.77991519 C622.08839835 265.77540109 626.92155146 265.777086 631.75490379 265.79667664 C657.12801441 265.8937729 681.58348491 265.32690134 705.67700195 256.30639648 C706.35778809 256.05519043 707.03857422 255.80398438 707.73999023 255.54516602 C722.93000369 249.85457368 736.89061614 242.32921033 749.67700195 232.30639648 C750.55485352 231.6322168 751.43270508 230.95803711 752.3371582 230.26342773 C780.78758936 207.78963392 799.51859626 176.97410137 808.55200195 141.99389648 C808.74334717 141.25518311 808.93469238 140.51646973 809.13183594 139.75537109 C812.54964301 125.44592439 812.96843653 111.12669538 812.9819622 96.49427605 C812.9856797 93.26067843 813.00254429 90.02737307 813.02272034 86.7938385 C813.0776656 77.6135907 813.10892583 68.43330455 813.13330078 59.25292969 C813.14918493 53.60635642 813.17939063 47.96000021 813.21806526 42.31353951 C813.22968349 40.17300277 813.23564533 38.03242732 813.23574638 35.89185905 C813.23593874 32.90602737 813.25422126 29.92079671 813.27636719 26.93505859 C813.26950142 25.6219294 813.26950142 25.6219294 813.26249695 24.28227234 C813.36031005 15.97387616 815.94028247 10.31629309 821.67700195 4.30639648 C826.0876613 1.18666182 829.81602331 0.18874114 835.15959167 0.15922546 C836.49880173 0.14849251 836.49880173 0.14849251 837.86506653 0.13754272 C838.83707504 0.13485382 839.80908356 0.13216492 840.81054688 0.12939453 C842.35518616 0.11953773 842.35518616 0.11953773 843.93103027 0.10948181 C847.33984451 0.08976733 850.74861471 0.0780899 854.1574707 0.06811523 C855.90584449 0.06200194 855.90584449 0.06200194 857.68953896 0.05576515 C863.85959317 0.03491171 870.0296252 0.02060716 876.19970703 0.01123047 C882.56391774 0.00017128 888.92777832 -0.03422554 895.29186535 -0.07394123 C900.19304543 -0.10012015 905.09414227 -0.10846256 909.99538612 -0.11205101 C912.3408577 -0.11691409 914.68632563 -0.12852004 917.03172874 -0.147089 C920.32026071 -0.17150533 923.60788902 -0.17051037 926.89648438 -0.16357422 C927.85837173 -0.17638428 928.82025909 -0.18919434 929.81129456 -0.20239258 C936.8574807 -0.14844273 943.21718128 1.14896249 948.56262493 6.02721691 C954.46648075 12.32026563 954.97410061 18.88070019 954.95166016 27.16601562 C954.95677109 28.1444342 954.96188202 29.12285278 954.96714783 30.13092041 C954.98104578 33.36786026 954.9800835 36.60458655 954.9777832 39.84155273 C954.98167675 42.11763079 954.98601277 44.39370813 954.99076843 46.66978455 C954.99823603 51.45549867 954.99794034 56.2411391 954.99267578 61.02685547 C954.98808124 65.88046628 954.99481568 70.73382445 955.01318359 75.58740234 C955.21124814 128.36906631 955.21124814 128.36906631 951.67700195 151.30639648 C951.56113739 152.08103241 951.44527283 152.85566833 951.32589722 153.65377808 C950.68691718 157.80213731 949.89757991 161.89674281 948.98950195 165.99389648 C948.73604004 167.17266357 948.48257813 168.35143066 948.22143555 169.56591797 C933.62186537 235.11509793 896.5440896 299.14789788 842.67700195 340.30639648 C841.39236839 341.31842876 840.10858025 342.33153471 838.82543945 343.34545898 C798.41728742 375.0400604 750.43866008 396.18904083 699.67700195 404.30639648 C698.28795654 404.53069336 698.28795654 404.53069336 696.87084961 404.75952148 C682.46224584 406.96853921 667.89320798 407.8113382 653.33062744 408.16369629 C651.44920446 408.2168057 649.56823279 408.29002719 647.68841553 408.38415527 C632.7029519 409.09538405 632.7029519 409.09538405 627.84033203 404.80151367 C625.78757786 401.7222627 624.21067442 398.66918507 622.67700195 395.30639648 C621.36408045 393.29941843 621.36408045 393.29941843 620.0246582 391.64233398 C619.27055664 390.66522461 618.51645508 389.68811523 617.73950195 388.68139648 C613.30356871 382.97671835 608.65377129 377.54591451 603.67700195 372.30639648 C603.18780273 371.78464844 602.69860352 371.26290039 602.19458008 370.7253418 C589.11511893 356.8534286 574.41414178 345.44451527 557.67700195 336.30639648 C557.06066895 335.96801758 556.44433594 335.62963867 555.80932617 335.28100586 C511.2585809 311.15463798 458.95035107 305.44493411 410.23510742 319.53344727 C389.66465129 325.74895253 370.06953589 334.5650665 352.67700195 347.30639648 C351.63672852 348.06307617 350.59645508 348.81975586 349.5246582 349.59936523 C328.53086232 365.16054229 310.52686014 384.48551611 297.67700195 407.30639648 C249.60489011 407.95386587 249.60489011 407.95386587 228.67700195 404.30639648 C227.53199219 404.10771973 226.38698242 403.90904297 225.20727539 403.7043457 C194.53237776 398.19870059 165.11850513 388.79608696 137.51098633 374.26391602 C135.71816546 373.32788787 133.90861217 372.42413215 132.09887695 371.52124023 C115.88754867 363.33741472 100.74403292 352.756737 86.67700195 341.30639648 C86.16298828 340.8885791 85.64897461 340.47076172 85.11938477 340.0402832 C66.61729649 324.91718281 50.10294118 308.35489707 35.67700195 289.30639648 C35.23533691 288.73228027 34.79367188 288.15816406 34.33862305 287.56665039 C15.54072711 263.09987456 1.40248727 236.16904733 -9.32299805 207.30639648 C-9.77715088 206.09089111 -9.77715088 206.09089111 -10.24047852 204.85083008 C-20.34107712 177.4060097 -26.42276701 147.08694882 -26.5 117.81738281 C-26.5065712 116.71525955 -26.5131424 115.61313629 -26.51991272 114.47761536 C-26.53947577 110.86455196 -26.55126409 107.25152958 -26.5612793 103.63842773 C-26.56535482 102.39862341 -26.56943035 101.15881908 -26.57362938 99.88144493 C-26.59227537 94.00336619 -26.60686514 88.12530337 -26.61524135 82.24720079 C-26.6250375 75.48765374 -26.65144813 68.72843204 -26.69174224 61.96899968 C-26.72557945 56.08929319 -26.73738841 50.20969584 -26.74144554 44.32990074 C-26.74631442 41.83764104 -26.75793687 39.34538492 -26.77648354 36.85318947 C-26.80080824 33.37093569 -26.79992279 29.88953913 -26.79296875 26.40722656 C-26.80577881 25.38211975 -26.81858887 24.35701294 -26.83178711 23.30084229 C-26.77961403 16.12997592 -25.48960015 11.79886816 -20.5769043 6.38061523 C-20.01874023 5.92299805 -19.46057617 5.46538086 -18.88549805 4.99389648 C-18.32991211 4.52338867 -17.77432617 4.05288086 -17.2019043 3.56811523 C-11.67349806 -0.14430725 -6.44838319 0.00439059 0 0 Z " fill="#33865F" transform="translate(26.322998046875,813.693603515625)"/>
<path d="M0 0 C9.79668377 7.84094074 15.8399897 19.95879924 21.875 30.75 C22.5642907 31.97095395 23.25433086 33.19148506 23.94506836 34.41162109 C25.00659116 36.2869122 26.06768807 38.16242834 27.12651062 40.03924561 C30.64718898 46.27921756 34.22564181 52.48536214 37.8125 58.6875 C39.05341803 60.83591866 40.29430346 62.98435616 41.53515625 65.1328125 C42.14762207 66.19274414 42.76008789 67.25267578 43.39111328 68.34472656 C46.51324605 73.74920645 49.63141204 79.15597412 52.75 84.5625 C53.99998122 86.7291775 55.24998121 88.89584417 56.5 91.0625 C109 182.06249999 109 182.06249999 110.87524414 185.31298828 C112.12435518 187.47807071 113.37354129 189.64310982 114.62280273 191.80810547 C117.76202309 197.24865706 120.89990563 202.68997216 124.03515625 208.1328125 C130.05747329 218.58456199 136.09669337 229.02549548 142.1875 239.4375 C147.60921178 248.70749777 152.95204915 258.02081752 158.26922607 267.35095215 C163.47045129 276.4753284 168.73027878 285.56382774 174.03344727 294.62939453 C180.18335892 305.14597855 186.26491822 315.70164401 192.34570312 326.25830078 C194.90488025 330.69880119 197.46842206 335.13677403 200.0324707 339.57446289 C201.29324191 341.75879789 202.55222152 343.94416805 203.80932617 346.13061523 C206.76108116 351.26422118 209.73018241 356.38496318 212.75390625 361.4765625 C213.30280518 362.41072998 213.8517041 363.34489746 214.41723633 364.30737305 C215.42892043 366.02846884 216.45001095 367.74409218 217.4831543 369.45239258 C223.76558668 380.20842503 226.05922105 391.66971856 223.55859375 403.9609375 C221.58861173 411.03309053 218.86702117 416.85581689 214.25 422.5625 C213.77175781 423.17609375 213.29351563 423.7896875 212.80078125 424.421875 C207.23105705 430.76322346 197.60491435 435.9948745 189.25 437.5625 C186.85488047 437.65752156 184.45724311 437.6934264 182.0602417 437.69672108 C180.96717778 437.70024942 180.96717778 437.70024942 179.85203177 437.70384905 C177.39710786 437.71053443 174.94223694 437.71008096 172.48730469 437.70967102 C170.714615 437.71296994 168.94192607 437.71669557 167.16923809 437.7208125 C162.28736341 437.73083757 157.40550102 437.73455012 152.52361751 437.73720181 C147.2623268 437.7411034 142.00104584 437.75068189 136.73976135 437.75941467 C124.02787572 437.77918395 111.31598929 437.78924622 98.60409212 437.79814246 C92.618497 437.8025249 86.63290277 437.80789185 80.64730835 437.81313133 C60.75052575 437.83014463 40.85374371 437.84463867 20.95695496 437.85188007 C15.79275512 437.85378999 10.62855529 437.85571031 5.46435547 437.85766602 C4.18081023 437.85814976 2.897265 437.8586335 1.57482445 437.8591319 C-19.21642437 437.86743167 -40.00761564 437.89276727 -60.79883933 437.92524669 C-82.14269929 437.95831767 -103.48653001 437.9763289 -124.83041573 437.97952431 C-136.81499931 437.98168945 -148.799499 437.99043862 -160.78405762 438.01598549 C-170.99113844 438.03769303 -181.19811499 438.04574262 -191.40521628 438.03601871 C-196.61174731 438.03147411 -201.81806321 438.03336971 -207.02456474 438.05278015 C-211.79554605 438.07041303 -216.56615529 438.06941295 -221.33714056 438.05388286 C-223.05862737 438.05150699 -224.78013995 438.05582926 -226.50158739 438.06771151 C-242.20785888 438.16936571 -253.2834347 435.48027891 -264.90625 424.53125 C-272.93100694 416.26694808 -276.7908097 406.00209177 -277.0625 394.5625 C-277.09988281 393.551875 -277.13726562 392.54125 -277.17578125 391.5 C-275.96056728 380.26205798 -271.150018 370.95229172 -265.4375 361.375 C-264.72337263 360.15523039 -264.01059095 358.93467206 -263.29907227 357.71337891 C-261.83919148 355.21121642 -260.37266302 352.71315217 -258.90039062 350.21826172 C-256.24437129 345.71210035 -253.63745901 341.17799945 -251.03051758 336.64331055 C-249.17960271 333.42376317 -247.3230886 330.20750903 -245.46484375 326.9921875 C-241.72348344 320.51739978 -237.98642517 314.04013657 -234.25 307.5625 C-233.00001878 305.3958225 -231.75001879 303.22915583 -230.5 301.0625 C-229.571875 299.45375 -229.571875 299.45375 -228.625 297.8125 C-216.75 277.22916667 -204.875 256.64583333 -193 236.0625 C-192.38116943 234.98983887 -191.76233887 233.91717773 -191.12475586 232.81201172 C-189.87564482 230.64692929 -188.62645871 228.48189018 -187.37719727 226.31689453 C-184.23797691 220.87634294 -181.10009437 215.43502784 -177.96484375 209.9921875 C-171.94252671 199.54043801 -165.90330663 189.09950452 -159.8125 178.6875 C-154.73724877 170.00987759 -149.72741233 161.29644432 -144.75 152.5625 C-139.2099827 142.84134383 -133.61625191 133.15355342 -127.96655273 123.49560547 C-121.81233258 112.97165375 -115.72630004 102.40869863 -109.64111328 91.84472656 C-106.51319852 86.41590058 -103.38141552 80.98930719 -100.25 75.5625 C-98.99998121 73.39584417 -97.74998122 71.2291775 -96.5 69.0625 C-92.75 62.5625 -92.75 62.5625 -89 56.0625 C-88.38060547 54.9885498 -87.76121094 53.91459961 -87.12304688 52.80810547 C-85.8807233 50.65541391 -84.63724537 48.5033881 -83.39257812 46.35205078 C-80.48439245 41.32223228 -77.58752938 36.28696531 -74.73303223 31.22650146 C-73.72661083 29.44361307 -72.71641959 27.66291389 -71.70507812 25.8828125 C-70.4410485 23.65529177 -69.18403922 21.42376616 -67.93554688 19.1875 C-61.16460648 7.29485386 -53.27429315 -1.61519573 -40.0625 -6.375 C-26.35556847 -9.85612547 -11.81921177 -7.75379635 0 0 Z " fill="#FF6E57" transform="translate(518.75,485.4375)"/>
<path d="M0 0 C27.43916554 26.77226927 41.56938237 63.49655704 42.41748047 101.50195312 C42.36766017 103.50306841 42.28055893 105.50341423 42.16748047 107.50195312 C42.11382324 108.48156006 42.11382324 108.48156006 42.05908203 109.48095703 C39.60950386 149.13015118 21.65289763 182.41328927 -6.83251953 209.50195312 C-37.00396639 236.11612494 -74.56113351 245.05531882 -113.83251953 243.50195312 C-146.40890621 241.13836671 -176.78152456 226.32210838 -199.83251953 203.50195312 C-201.23050781 202.19484375 -201.23050781 202.19484375 -202.65673828 200.86132812 C-227.20496574 177.4429354 -242.16404987 142.54674011 -243.03564453 108.70117188 C-243.54682559 66.54491075 -230.23073572 31.05363258 -201.38330078 0.05273438 C-197.14662058 -4.18394583 -192.59362914 -7.8702333 -187.83251953 -11.49804688 C-186.84251953 -12.28824219 -185.85251953 -13.0784375 -184.83251953 -13.89257812 C-129.14355453 -57.08273029 -49.43920475 -47.02931737 0 0 Z " fill="#33865F" transform="translate(590.83251953125,1217.498046875)"/>
<path d="M0 0 C0.68465332 0.15033691 1.36930664 0.30067383 2.07470703 0.45556641 C20.3438924 4.6374598 38.27903811 13.47203548 53 25 C53.93585938 25.71671875 54.87171875 26.4334375 55.8359375 27.171875 C85.40236877 50.52687113 104.50140705 84.30887841 109.12060547 121.76391602 C109.51327865 125.50486289 109.79429144 129.24442891 110 133 C110.05929687 134.04800781 110.11859375 135.09601563 110.1796875 136.17578125 C111.12956322 174.32912274 95.98164142 210.57664656 69.87109375 238.05859375 C52.46964686 256.01698174 31.92237103 268.65992732 8 276 C7.35482422 276.20109375 6.70964844 276.4021875 6.04492188 276.609375 C-29.62163984 287.43737733 -68.7336365 281.75163484 -101.30200195 264.453125 C-109.81924021 259.74438225 -117.5279742 254.21781571 -125 248 C-125.52803223 247.56300781 -126.05606445 247.12601563 -126.60009766 246.67578125 C-133.61449839 240.79083711 -139.45096118 234.26195838 -145 227 C-145.66644531 226.14921875 -146.33289063 225.2984375 -147.01953125 224.421875 C-169.96590611 194.18878149 -179.06471774 155.93733981 -174.22851562 118.42211914 C-169.00544201 84.48296194 -151.82166084 51.84114801 -125 30 C-124.08863281 29.23945312 -123.17726563 28.47890625 -122.23828125 27.6953125 C-88.24214558 0.31072141 -42.51613011 -9.69528538 0 0 Z " fill="#006837" transform="translate(523,3)"/>
</svg>
